Coordinates
version=1
nRows=13
nColumns=22
inDegrees=yes

Units are S.I. units (second, meters, Newtons, ...)
If the header above contains a line with 'inDegrees', this indicates whether rotational values are in degrees (yes) or radians (no).

endheader
time	pelvis_tilt	pelvis_list	pelvis_rotation	pelvis_tx	pelvis_ty	pelvis_tz	hip_flexion_r	hip_adduction_r	hip_rotation_r	knee_angle_r	ankle_angle_r	subtalar_angle_r	hip_flexion_l	hip_adduction_l	hip_rotation_l	knee_angle_l	ankle_angle_l	subtalar_angle_l	lumbar_extension	lumbar_bending	lumbar_rotation
      1.33000000	     -5.18721107	     -2.46893719	     -0.80453383	      1.10305421	      0.94298309	     -0.27715967	      9.20639202	      2.26525039	     -4.83828591	    -15.71560133	     11.32972002	     -2.42424573	      8.56952729	     -4.25545720	     -3.88424323	    -14.18870010	     10.35283350	     -2.69188264	     -2.67586627	      0.32121487	     -0.92583644
      1.34000000	     -5.22202398	     -2.47965218	     -0.81384864	      1.10278863	      0.94291323	     -0.27687066	      9.29409111	      2.29391788	     -4.85502932	    -15.77132156	     11.33551035	     -2.46361109	      8.67842350	     -4.29105567	     -3.88520648	    -14.28575606	     10.34105679	     -2.66697980	     -2.65109276	      0.34332385	     -0.95856234
      1.35000000	     -5.25445817	     -2.48746548	     -0.81394881	      1.10252733	      0.94285216	     -0.27656889	      9.38073112	      2.32180051	     -4.85975306	    -15.83228452	     11.33170956	     -2.50301907	      8.78029915	     -4.31980415	     -3.84288735	    -14.37225763	     10.33806875	     -2.64569485	     -2.62545144	      0.35984513	     -1.00499595
      1.36000000	     -5.27588009	     -2.50130321	     -0.81207677	      1.10227244	      0.94280853	     -0.27623789	      9.45698914	      2.35715530	     -4.87260930	    -15.89593034	     11.33237077	     -2.53860124	      8.88337050	     -4.35995893	     -3.81858859	    -14.48124261	     10.32845167	     -2.62651087	     -2.60939601	      0.38054633	     -1.04706322
      1.37000000	     -5.30851612	     -2.52242855	     -0.81211349	      1.10194038	      0.94275165	     -0.27587710	      9.55877309	      2.40358757	     -4.88238468	    -15.97305403	     11.32806758	     -2.58263319	      9.02249698	     -4.40984509	     -3.78229039	    -14.62335659	     10.32997174	     -2.60140688	     -2.58892085	      0.40843569	     -1.08579642
      1.38000000	     -5.32601223	     -2.54298751	     -0.82626235	      1.10153775	      0.94272187	     -0.27546947	      9.66215147	      2.45339458	     -4.87868376	    -16.07091460	     11.31907075	     -2.62527150	      9.15885586	     -4.46292996	     -3.75498458	    -14.78470918	     10.33251865	     -2.57129459	     -2.59623216	      0.43553757	     -1.10989327
      1.39000000	     -5.33135126	     -2.57177228	     -0.84810602	      1.10104176	      0.94271147	     -0.27500383	      9.77244296	      2.51660182	     -4.86870382	    -16.19177705	     11.30842861	     -2.66721607	      9.30969303	     -4.53045133	     -3.73151541	    -14.98509083	     10.33942598	     -2.53586266	     -2.62853011	      0.46742415	     -1.12043814
      1.40000000	     -5.32827410	     -2.60492958	     -0.87777454	      1.10044669	      0.94271004	     -0.27447035	      9.89924245	      2.58968187	     -4.85291951	    -16.34455989	     11.29524471	     -2.70917440	      9.47874700	     -4.60881219	     -3.71176086	    -15.22426344	     10.35201245	     -2.49343463	     -2.68283432	      0.49918228	     -1.11422218
      1.41000000	     -5.35416692	     -2.63096010	     -0.91967624	      1.09970607	      0.94266326	     -0.27389246	     10.09214135	      2.66012114	     -4.80623890	    -16.53930553	     11.26288639	     -2.77038592	      9.70918871	     -4.67998783	     -3.65318072	    -15.50550274	     10.38159969	     -2.41533949	     -2.72105591	      0.52656664	     -1.09407601
      1.42000000	     -5.33807483	     -2.66293453	     -0.97011720	      1.09891209	      0.94266764	     -0.27324922	     10.26204332	      2.73950211	     -4.77074536	    -16.76523912	     11.24731708	     -2.81895607	      9.91756487	     -4.76602918	     -3.63164282	    -15.82197538	     10.40399171	     -2.35465704	     -2.81589000	      0.55846570	     -1.05766447
      1.43000000	     -5.27324296	     -2.69135132	     -1.02723331	      1.09808486	      0.94274100	     -0.27255795	     10.40277409	      2.81379703	     -4.76324943	    -17.02587875	     11.24809742	     -2.85211703	     10.08486293	     -4.85358082	     -3.63566281	    -16.15402915	     10.38820941	     -2.31620738	     -2.97321852	      0.58692473	     -1.00843424
      1.44000000	     -5.30482047	     -2.71124794	     -1.09389364	      1.09708879	      0.94265060	     -0.27180628	     10.68973156	      2.89095169	     -4.67787310	    -17.34311014	     11.21044995	     -2.93171507	     10.40454962	     -4.93426313	     -3.57782401	    -16.55908679	     10.42302618	     -2.22223686	     -3.03135309	      0.60644428	     -0.94432891
      1.45000000	     -5.28169420	     -2.72464889	     -1.16256797	      1.09607375	      0.94263202	     -0.27102061	     10.93438802	      2.95866291	     -4.62791598	    -17.68547587	     11.19050659	     -3.01982385	     10.67434360	     -5.01266831	     -3.54796981	    -16.97550678	     10.42747204	     -2.14075749	     -3.15729615	      0.61954123	     -0.87073764
